<?xml version="1.0"?>
<svg data-name="Layer 1" height="200" id="Layer_1" viewBox="0 0 200 200" width="200"
    stroke="currentColor" fill="currentColor"
    xmlns="http://www.w3.org/2000/svg">
    <title />
    <path
        d="M160,42.5v-10a10,10,0,0,0-20,0v10H60v-10a10,10,0,0,0-20,0v10a30.09,30.09,0,0,0-30,30v75a30.09,30.09,0,0,0,30,30H160a30.09,30.09,0,0,0,30-30v-75a30.09,30.09,0,0,0-30-30Zm10,105a10,10,0,0,1-10,10H40a10,10,0,0,1-10-10v-75a10,10,0,0,1,10-10H160a10,10,0,0,1,10,10v75Zm-20-75H50a10,10,0,0,0,0,20H150a10,10,0,0,0,0-20Zm-87.5,30H50a10,10,0,0,0,0,20H62.5a10,10,0,0,0,0-20Zm45,0h-15a10,10,0,0,0,0,20h15a10,10,0,0,0,0-20Zm42.5,0H137.5a10,10,0,0,0,0,20H150a10,10,0,0,0,0-20Z" />
</svg>