<?xml version="1.0"?>
<svg data-name="Layer 1" height="200" id="Layer_1" viewBox="0 0 200 200" width="200"
    stroke="currentColor" fill="currentColor"
    xmlns="http://www.w3.org/2000/svg">
    <title />
    <path
        d="M160,30H40A30.09,30.09,0,0,0,10,60v80a30.09,30.09,0,0,0,30,30H160a30.09,30.09,0,0,0,30-30V60a30.09,30.09,0,0,0-30-30Zm10,110a10,10,0,0,1-10,10H40a10,10,0,0,1-10-10V60A10,10,0,0,1,40,50H160a10,10,0,0,1,10,10ZM150,60H50a10,10,0,0,0,0,20H150a10,10,0,0,0,0-20ZM70,125H50a10,10,0,0,0,0,20H70a10,10,0,0,0,0-20Z" />
</svg>