<?xml version="1.0"?>
<svg data-name="Layer 1" height="200" id="Layer_1" viewBox="0 0 200 200" width="200"
    stroke="currentColor" fill="currentColor"
    xmlns="http://www.w3.org/2000/svg">
    <title />
    <path
        d="M138.94,27.75a9.67,9.67,0,0,0-14,0c-2.5,2.5-3,5.5-3,8.5v129a10,10,0,0,0,20,0V58.75l11,11a9.67,9.67,0,0,0,14,0,10.65,10.65,0,0,0,0-14Z" />
    <path
        d="M68.44,24.75a10,10,0,0,0-10,10v106.5l-11-11a9.9,9.9,0,0,0-14,14l28,28a9.67,9.67,0,0,0,14,0c2.5-2.5,3-5.5,3-8.5v-129A10,10,0,0,0,68.44,24.75Z" />
</svg>