<?xml version="1.0"?>
<svg data-name="Layer 1" height="200" id="Layer_1" viewBox="0 0 200 200" width="200"
    stroke="currentColor" fill="currentColor"
    xmlns="http://www.w3.org/2000/svg">
    <title />
    <path
        d="M40.5,173.86,89,141.36a19.61,19.61,0,0,1,22,0l48.5,32.5a9.84,9.84,0,0,0,15.5-8V54.36a30.09,30.09,0,0,0-30-30H55a30.09,30.09,0,0,0-30,30v111.5A9.84,9.84,0,0,0,40.5,173.86ZM45,54.36a10,10,0,0,1,10-10h90a10,10,0,0,1,10,10v92.5l-33-22a40,40,0,0,0-44.5,0l-33,22V54.36Z" />
</svg>