<?xml version="1.0"?>
<svg data-name="Layer 1" height="200" id="Layer_1" viewBox="0 0 200 200" width="200"
    stroke="currentColor" fill="currentColor"
    xmlns="http://www.w3.org/2000/svg">
    <title />
    <path
        d="M105.23,104.77h65a9.32,9.32,0,0,0,9.5-10,83.83,83.83,0,0,0-22-47.5,86.34,86.34,0,0,0-52.5-27,9.32,9.32,0,0,0-10,9.5v65A10,10,0,0,0,105.23,104.77Zm10-62a61.7,61.7,0,0,1,28,18,64.59,64.59,0,0,1,14,24h-42Zm55.5,72.5a10.15,10.15,0,0,0-13,5.5,61.27,61.27,0,0,1-57,38.5c-33,.5-60.5-27-60.5-60.5a61.27,61.27,0,0,1,38.5-57,10,10,0,0,0-7.5-18.5,81.63,81.63,0,0,0-51,75.5c0,44.5,36.5,81,81,81,34.5,0,63.5-21.5,75.5-51.5A10,10,0,0,0,170.73,115.27Z" />
</svg>